<mxfile host="65bd71144e">
    <diagram id="gWiZ1O8cVYJS-ZrOckYk" name="Page-1">
        <mxGraphModel dx="1130" dy="571" grid="1" gridSize="10" guides="1" tooltips="1" connect="1" arrows="1" fold="1" page="1" pageScale="1" pageWidth="1169" pageHeight="827" math="0" shadow="0">
            <root>
                <mxCell id="0"/>
                <mxCell id="1" parent="0"/>
                <mxCell id="4" value="Product" style="swimlane;whiteSpace=wrap;html=1;" parent="1" vertex="1">
                    <mxGeometry x="10" y="450" width="290" height="230" as="geometry"/>
                </mxCell>
                <mxCell id="11" value="&lt;ul&gt;&lt;li&gt;&lt;u style=&quot;font-weight: bold;&quot;&gt;productId&lt;/u&gt;&lt;i&gt;&amp;nbsp;: int&lt;/i&gt;&lt;/li&gt;&lt;li&gt;productImage&lt;i&gt; : String&lt;/i&gt;&lt;/li&gt;&lt;li&gt;productName &lt;i&gt;: String&lt;/i&gt;&lt;/li&gt;&lt;li&gt;description &lt;i&gt;: String&lt;/i&gt;&lt;/li&gt;&lt;li&gt;price &lt;i&gt;: float&lt;/i&gt;&lt;/li&gt;&lt;li&gt;quantity &lt;i&gt;: int&lt;/i&gt;&lt;/li&gt;&lt;li&gt;size &lt;i&gt;:int&lt;/i&gt;&lt;/li&gt;&lt;li&gt;productType &lt;i&gt;: enum{shoe, accessories}&lt;/i&gt;&lt;/li&gt;&lt;li&gt;category &lt;i&gt;: enum{men, women, kids}&lt;/i&gt;&lt;/li&gt;&lt;/ul&gt;" style="text;html=1;align=left;verticalAlign=middle;resizable=0;points=[];autosize=1;strokeColor=none;fillColor=none;" parent="4" vertex="1">
                    <mxGeometry x="10" y="10" width="270" height="220" as="geometry"/>
                </mxCell>
                <mxCell id="5" value="User" style="swimlane;whiteSpace=wrap;html=1;" parent="1" vertex="1">
                    <mxGeometry x="225" y="150" width="247.5" height="240" as="geometry"/>
                </mxCell>
                <mxCell id="6" value="&lt;ul&gt;&lt;li&gt;&lt;b&gt;&lt;u&gt;userId&lt;/u&gt;&amp;nbsp;&lt;/b&gt;&lt;i&gt;: int&lt;/i&gt;&lt;/li&gt;&lt;li&gt;role &lt;i&gt;: enum{admin, user}&lt;/i&gt;&lt;/li&gt;&lt;li&gt;firstName &lt;i&gt;: String&lt;/i&gt;&lt;/li&gt;&lt;li&gt;lastName &lt;i&gt;: String&lt;/i&gt;&lt;/li&gt;&lt;li&gt;phone&lt;i&gt; : String&lt;/i&gt;&lt;/li&gt;&lt;li&gt;email &lt;i&gt;: String&lt;/i&gt;&lt;/li&gt;&lt;li&gt;password &lt;i&gt;: String&lt;/i&gt;&lt;/li&gt;&lt;li&gt;&lt;i&gt;gender : enum{MALE, FEMALE}&lt;/i&gt;&lt;/li&gt;&lt;li&gt;dateOfBirth &lt;i&gt;: date&lt;/i&gt;&lt;/li&gt;&lt;li&gt;token&lt;i&gt; : String&lt;/i&gt;&lt;/li&gt;&lt;/ul&gt;" style="text;html=1;align=left;verticalAlign=middle;resizable=0;points=[];autosize=1;strokeColor=none;fillColor=none;" parent="5" vertex="1">
                    <mxGeometry y="10" width="240" height="240" as="geometry"/>
                </mxCell>
                <mxCell id="35" style="edgeStyle=none;html=1;exitX=0.5;exitY=1;exitDx=0;exitDy=0;entryX=0.5;entryY=0;entryDx=0;entryDy=0;strokeColor=default;endArrow=none;endFill=0;curved=1;startArrow=ERmany;startFill=0;" parent="1" source="7" target="4" edge="1">
                    <mxGeometry relative="1" as="geometry">
                        <Array as="points">
                            <mxPoint x="95" y="410"/>
                            <mxPoint x="155" y="410"/>
                        </Array>
                    </mxGeometry>
                </mxCell>
                <mxCell id="42" style="edgeStyle=none;rounded=0;html=1;exitX=1;exitY=0.5;exitDx=0;exitDy=0;strokeColor=default;startArrow=ERmany;startFill=0;endArrow=none;endFill=0;entryX=0;entryY=0.5;entryDx=0;entryDy=0;" parent="1" source="7" target="5" edge="1">
                    <mxGeometry relative="1" as="geometry">
                        <mxPoint x="200" y="280" as="targetPoint"/>
                    </mxGeometry>
                </mxCell>
                <mxCell id="7" value="Wishlist" style="swimlane;whiteSpace=wrap;html=1;" parent="1" vertex="1">
                    <mxGeometry x="20" y="155" width="150" height="205" as="geometry"/>
                </mxCell>
                <mxCell id="12" value="&lt;ul&gt;&lt;li&gt;&lt;b style=&quot;background-color: initial;&quot;&gt;userId &lt;/b&gt;&lt;i style=&quot;background-color: initial;&quot;&gt;: int&lt;/i&gt;&lt;/li&gt;&lt;li&gt;&lt;b&gt;productId &lt;/b&gt;&lt;i&gt;: int&lt;/i&gt;&lt;/li&gt;&lt;/ul&gt;" style="text;html=1;align=left;verticalAlign=middle;resizable=0;points=[];autosize=1;strokeColor=none;fillColor=none;" parent="7" vertex="1">
                    <mxGeometry y="60" width="140" height="80" as="geometry"/>
                </mxCell>
                <mxCell id="43" style="edgeStyle=none;html=1;exitX=1;exitY=0.5;exitDx=0;exitDy=0;entryX=0;entryY=0.5;entryDx=0;entryDy=0;startArrow=none;startFill=0;endArrow=none;endFill=0;" parent="1" source="8" target="15" edge="1">
                    <mxGeometry relative="1" as="geometry"/>
                </mxCell>
                <mxCell id="44" style="edgeStyle=none;html=1;exitX=0.5;exitY=0;exitDx=0;exitDy=0;entryX=0.646;entryY=0.958;entryDx=0;entryDy=0;entryPerimeter=0;startArrow=ERmany;startFill=0;endArrow=none;endFill=0;" parent="1" source="8" target="6" edge="1">
                    <mxGeometry relative="1" as="geometry">
                        <Array as="points">
                            <mxPoint x="460" y="410"/>
                            <mxPoint x="380" y="410"/>
                        </Array>
                    </mxGeometry>
                </mxCell>
                <mxCell id="8" value="Cart" style="swimlane;whiteSpace=wrap;html=1;" parent="1" vertex="1">
                    <mxGeometry x="360" y="440" width="200" height="210" as="geometry"/>
                </mxCell>
                <mxCell id="10" value="&lt;ul&gt;&lt;li&gt;&lt;u style=&quot;font-weight: bold;&quot;&gt;cartId&lt;/u&gt;&lt;i&gt;&amp;nbsp;: int&lt;/i&gt;&lt;/li&gt;&lt;li&gt;&lt;b style=&quot;&quot;&gt;userId &lt;/b&gt;&lt;i&gt;: int&lt;/i&gt;&lt;/li&gt;&lt;li&gt;&lt;b style=&quot;&quot;&gt;productId&amp;nbsp;&lt;/b&gt;&lt;i&gt;: int&lt;/i&gt;&lt;/li&gt;&lt;li&gt;quantity&lt;i&gt; : int&lt;/i&gt;&lt;/li&gt;&lt;li&gt;date &lt;i&gt;: date&lt;/i&gt;&lt;/li&gt;&lt;li&gt;amount &lt;i&gt;: float&lt;/i&gt;&lt;/li&gt;&lt;/ul&gt;" style="text;html=1;align=left;verticalAlign=middle;resizable=0;points=[];autosize=1;strokeColor=none;fillColor=none;" parent="8" vertex="1">
                    <mxGeometry x="10" y="20" width="140" height="160" as="geometry"/>
                </mxCell>
                <mxCell id="40" style="edgeStyle=none;html=1;exitX=0.5;exitY=1;exitDx=0;exitDy=0;strokeColor=default;startArrow=none;startFill=0;endArrow=ERmany;endFill=0;entryX=0.5;entryY=0;entryDx=0;entryDy=0;rounded=0;" parent="1" source="13" target="15" edge="1">
                    <mxGeometry relative="1" as="geometry">
                        <mxPoint x="595" y="400" as="targetPoint"/>
                        <Array as="points">
                            <mxPoint x="700" y="400"/>
                            <mxPoint x="740" y="400"/>
                        </Array>
                    </mxGeometry>
                </mxCell>
                <mxCell id="13" value="Address" style="swimlane;whiteSpace=wrap;html=1;" parent="1" vertex="1">
                    <mxGeometry x="595" y="150" width="210" height="200" as="geometry">
                        <mxRectangle x="595" y="150" width="90" height="30" as="alternateBounds"/>
                    </mxGeometry>
                </mxCell>
                <mxCell id="14" value="&lt;ul&gt;&lt;li style=&quot;&quot;&gt;&lt;u style=&quot;font-weight: bold;&quot;&gt;addressId&lt;/u&gt;&lt;i&gt;&amp;nbsp;: int&lt;/i&gt;&lt;/li&gt;&lt;li style=&quot;&quot;&gt;addressName &lt;i&gt;: String&lt;/i&gt;&lt;/li&gt;&lt;li style=&quot;&quot;&gt;street &lt;i&gt;: String&lt;/i&gt;&lt;/li&gt;&lt;li&gt;city &lt;i&gt;:String&lt;/i&gt;&lt;/li&gt;&lt;li&gt;country &lt;i&gt;: String&lt;/i&gt;&lt;/li&gt;&lt;/ul&gt;" style="text;html=1;align=left;verticalAlign=middle;resizable=0;points=[];autosize=1;strokeColor=none;fillColor=none;" parent="13" vertex="1">
                    <mxGeometry x="5" y="30" width="180" height="140" as="geometry"/>
                </mxCell>
                <mxCell id="15" value="Transaction" style="swimlane;whiteSpace=wrap;html=1;" parent="1" vertex="1">
                    <mxGeometry x="600" y="440" width="280" height="210" as="geometry"/>
                </mxCell>
                <mxCell id="16" value="&lt;ul&gt;&lt;li&gt;&lt;u style=&quot;font-weight: bold;&quot;&gt;transactionId&lt;/u&gt;&lt;i&gt;&amp;nbsp;: int&lt;/i&gt;&lt;/li&gt;&lt;li&gt;&lt;b style=&quot;&quot;&gt;cartId&lt;/b&gt;&lt;i&gt;&amp;nbsp;: int&lt;/i&gt;&lt;/li&gt;&lt;li style=&quot;border-color: var(--border-color);&quot;&gt;&lt;b style=&quot;border-color: var(--border-color);&quot;&gt;addressId&amp;nbsp;&lt;/b&gt;&lt;i style=&quot;border-color: var(--border-color);&quot;&gt;: int&lt;/i&gt;&lt;/li&gt;&lt;li&gt;status&lt;i&gt;&amp;nbsp;: enum{PENDING, &lt;br&gt;VERIFIED, SHIPPED, COMPLETE, &lt;br&gt;RETURNED, CANCELLED}&lt;/i&gt;&lt;/li&gt;&lt;li&gt;discount&lt;i&gt;&amp;nbsp;: float&lt;/i&gt;&lt;/li&gt;&lt;li&gt;total &lt;i&gt;: float&lt;/i&gt;&lt;/li&gt;&lt;/ul&gt;" style="text;html=1;align=left;verticalAlign=middle;resizable=0;points=[];autosize=1;strokeColor=none;fillColor=none;" parent="15" vertex="1">
                    <mxGeometry x="-5" y="10" width="250" height="190" as="geometry"/>
                </mxCell>
                <mxCell id="37" style="edgeStyle=none;html=1;exitX=0;exitY=0.5;exitDx=0;exitDy=0;entryX=1;entryY=0.5;entryDx=0;entryDy=0;strokeColor=default;endArrow=none;endFill=0;startArrow=ERmany;startFill=0;curved=1;" parent="1" target="4" edge="1">
                    <mxGeometry relative="1" as="geometry">
                        <Array as="points">
                            <mxPoint x="340" y="540"/>
                            <mxPoint x="340" y="555"/>
                        </Array>
                        <mxPoint x="360" y="540" as="sourcePoint"/>
                    </mxGeometry>
                </mxCell>
                <mxCell id="20" value="Step Elegance&lt;br&gt;Database" style="text;strokeColor=none;fillColor=none;html=1;fontSize=24;fontStyle=1;verticalAlign=middle;align=center;" parent="1" vertex="1">
                    <mxGeometry x="350" y="30" width="100" height="40" as="geometry"/>
                </mxCell>
            </root>
        </mxGraphModel>
    </diagram>
</mxfile>